<?xml version="1.0" encoding="UTF-8"?>
<svg id="Capa_2" data-name="Capa 2" xmlns="http://www.w3.org/2000/svg" xmlns:xlink="http://www.w3.org/1999/xlink" viewBox="0 0 800 800">
  <defs>
    <style>
      .cls-1 {
        fill: #2c317a;
      }

      .cls-2 {
        fill: none;
      }

      .cls-3 {
        clip-path: url(#clippath-1);
      }

      .cls-4 {
        clip-path: url(#clippath-3);
      }

      .cls-5 {
        stroke: #eb6209;
        stroke-miterlimit: 10;
        stroke-width: 2px;
      }

      .cls-5, .cls-6 {
        fill: #eb6209;
      }

      .cls-7 {
        clip-path: url(#clippath-2);
      }

      .cls-8 {
        clip-path: url(#clippath);
      }
    </style>
    <clipPath id="clippath">
      <rect class="cls-2" x="517.03" y="101.29" width="48.28" height="496.32"/>
    </clipPath>
    <clipPath id="clippath-1">
      <rect class="cls-2" x="565.31" y="101.29" width="48.28" height="496.32"/>
    </clipPath>
    <clipPath id="clippath-2">
      <rect class="cls-2" x="565.31" y="103.44" width="48.28" height="496.32"/>
    </clipPath>
    <clipPath id="clippath-3">
      <rect class="cls-2" x="517.03" y="103.44" width="48.28" height="496.32"/>
    </clipPath>
  </defs>
  <g>
    <g>
      <g>
        <g id="_Repetición_de_espejo_" data-name="&amp;lt;Repetición de espejo&amp;gt;">
          <g class="cls-8">
            <line class="cls-5" x1="564.7" y1="102.34" x2="564.7" y2="597.61"/>
            <path class="cls-5" d="M518.03,124.86v82.6c0,5.54,1.77,10.93,5.06,15.39l27.52,37.32h13.81V102.34s-21.88,1.12-36.15,7.09c-6.21,2.6-10.24,8.68-10.24,15.42Z"/>
          </g>
        </g>
        <g id="_Repetición_de_espejo_-2" data-name="&amp;lt;Repetición de espejo&amp;gt;">
          <g class="cls-3">
            <line class="cls-5" x1="565.93" y1="102.34" x2="565.93" y2="597.61"/>
            <path class="cls-5" d="M612.6,124.86v82.6c0,5.54-1.77,10.93-5.06,15.39l-27.52,37.32h-13.81V102.34s21.88,1.12,36.15,7.09c6.21,2.6,10.24,8.68,10.24,15.42Z"/>
          </g>
        </g>
      </g>
      <g>
        <g id="_Repetición_de_espejo_-3" data-name="&amp;lt;Repetición de espejo&amp;gt;">
          <g class="cls-7">
            <line class="cls-5" x1="565.93" y1="598.71" x2="565.93" y2="103.44"/>
            <path class="cls-5" d="M612.6,576.2v-82.6c0-5.54-1.77-10.93-5.06-15.39l-27.52-37.32h-13.81v157.82s21.88-1.12,36.15-7.09c6.21-2.6,10.24-8.68,10.24-15.42Z"/>
          </g>
        </g>
        <g id="_Repetición_de_espejo_-4" data-name="&amp;lt;Repetición de espejo&amp;gt;">
          <g class="cls-4">
            <line class="cls-5" x1="564.7" y1="598.71" x2="564.7" y2="103.44"/>
            <path class="cls-5" d="M518.03,576.2v-82.6c0-5.54,1.77-10.93,5.06-15.39l27.52-37.32h13.81v157.82s-21.88-1.12-36.15-7.09c-6.21-2.6-10.24-8.68-10.24-15.42Z"/>
          </g>
        </g>
      </g>
    </g>
    <rect class="cls-5" x="550.61" y="259.63" width="29.38" height="190"/>
  </g>
  <path class="cls-1" d="M57.06,270.58c-3.74,0-3.55.2-3.55-2.56v-5.52c0-25.22-.79-64.62-.79-93.38,0-12.61.2-24.63.59-35.26,0-2.17-.2-1.97,2.17-1.97l72.3-1.58h.79c1.38,0,1.38.2,1.38,2.36v30.93c0,1.38,0,1.77-12.02,1.77-9.65,0-22.85-.39-45.71-.59-1.38,0-2.17,4.92-2.17,9.65,0,4.33.59,8.47,1.58,8.47l55.16-.2c3.55,0,2.96-.2,2.76,2.36l-1.38,24.82c-.2,3.55.39,3.15-4.53,3.35l-51.81,1.58c-.79,0-1.38-.98-1.38,2.76,0,3.15.59,18.52,1.77,18.52,4.33.59,9.06.79,14.18.79,10.44,0,104.22-.79,117.22-.98,2.76,0,2.56-.2,2.76,2.17l-1.97,29.95c0,.98.2,1.57.2,1.97,0,1.18-.39,1.18-1.18,1.18h-.98l-145.39-.59ZM138.82,177.59v-8.08c0-20.09,2.36-44.72,42.16-44.72,3.74,0,19.9.2,23.05.59,6.7,1.18,7.29,1.58,7.29,4.14v33.1c0,4.14,0,4.92-2.17,4.92-.98,0-2.76-.2-5.12-.2-3.55,0-20.09-3.55-25.22-3.55-18.72,0-21.28,3.15-21.28,13,0,16.55,3.55,19.7,24.82,19.7,4.33,0,24.43-4.14,27.58-4.14,1.58,0,2.56-.2,3.35-.2,1.18,0,1.38.59,1.38,3.94v26c0,2.96-.39,3.74-4.33,4.53-3.74.59-24.43.99-28.96.99h-.79c-24.03,0-41.77-5.91-41.77-50.04Z"/>
  <path class="cls-1" d="M52.33,425.36s2.76-57.33,2.76-97.91c0-17.73-.59-30.14-1.58-36.05,0-1.58,0-1.77,2.17-1.77h1.38l21.87-.39h1.77c.99,0,.99,1.38.99,2.76-1.38,12.61-1.77,21.47-1.77,28.76,0,5.52.2,10.05.39,14.78,0,7.29.79,8.08,2.76,8.08h4.53c21.87,0,23.64-28.17,23.64-47.28,0-3.35.79-4.93,2.76-4.93,5.12-.2,26.6-.2,29.94-.2,2.56,0,1.97.79,1.97,1.77l.59,23.25c0,2.96-.2,2.96-2.56,3.15l-4.14.2c-.2,0-.59.39-.59.59l-.39,7.88c-1.38,29.35-37.43,29.35-38.22,31.32-.39.98.98.98,1.18.98,41.37,0,35.46,53.98,37.83,60.09,0,.59,1.18,2.36,1.18,3.94,0,.99-.59,1.77-1.97,1.97,0,0-4.33.2-6.9.2-5.52,0-18.52-.2-21.28-.39-.99,0-1.18-2.17-1.18-5.32,0-9.65.98-17.53.98-23.84,0-11.43-2.96-17.14-19.7-17.14-5.12,0-11.62,1.38-11.62,5.52,0,30.14-.59,38.42-.59,40.39,0,.59-.2.79-.98.79l-24.23.2c-.98,0-.98-.2-.98-1.38Z"/>
  <path class="cls-1" d="M154.18,392.66c0-19.31,15.17-26.4,42.16-26.4h9.65c4.14,0,8.47-.2,8.47-4.33,0-7.09,0-19.7-18.12-19.7-5.52,0-25.41.39-33.69.59-1.97,0-3.55.2-4.53.2-3.35,0-2.76-.99-3.15-7.88l-.59-19.11c0-1.38-.2-2.56-.2-3.35,0-2.17.59-2.76,2.76-2.76.59,0,1.58.2,2.56.2l36.45,2.76c30.14,2.36,44.33,23.05,44.33,67.18,0,0,.39,8.87.39,24.82,0,16.94-.39,31.92-2.36,32.11l-22.66.99h-.2c-.39,0-1.38-.2-1.38-1.38v-14.18c-3.55,4.92-4.53,15.56-19.7,15.56h-1.97c-23.44,0-38.22-6.7-38.22-45.31ZM283.22,431.08c0-9.26-.59-27.19-.59-40.39v-4.73c-33.1,0-34.87-14.78-34.87-45.9v-33.1c0-5.91-.2-6.5-6.5-6.5l-63.83-.59c-3.55,0-2.76-.39-3.94-5.71l-1.58-11.43c0-4.73.99-5.52,3.15-5.52,1.18,0,2.96.2,5.12.2,55.36-.2,66.39-.99,76.83-.99h3.15c17.73,0,21.67,1.97,21.67,15.96,0,7.68-1.38,31.13-2.17,52.99,0,7.88.59,19.7,11.62,19.7,17.14,0,18.72-.99,18.72-13.59,0-4.53-1.97-50.04-1.97-53.59,0-3.35.79-5.12,2.56-5.12,3.94-.2,8.08-.2,11.43-.2,14.97,0,15.37,1.38,15.56,2.76l.39,25.61c0,2.96-.2,2.96-2.56,2.96l-3.94.2c-1.38,39.99,1.18,59.1-27.58,61.07l3.55,47.28c0,3.15-.39,3.35-3.15,3.35h-15.56c-3.94,0-5.52-.39-5.52-4.73ZM215.25,385.76c0-2.56-2.56-3.35-3.55-3.35h-3.94c-27.19,0-29.75,7.29-29.75,10.05,0,.59.2.99.2.99,0,9.46,6.9,13.59,15.17,13.59,18.52,0,21.87-21.28,21.87-21.28Z"/>
  <path class="cls-1" d="M345.27,397.39c0-25.02,12.02-26.4,33.69-26.4h7.68c3.35,0,6.9-.2,6.9-3.55,0-5.71,0-15.76-14.38-15.76-4.33,0-20.49.39-27.19.59-1.58,0-2.76.2-3.55.2-2.76,0-2.36-.79-2.56-6.3l-.39-16.75c0-1.18-.2-2.17-.2-2.76,0-1.77.39-2.17,2.17-2.17.39,0,1.38.2,2.17.2l29.16,2.17c24.23,1.77,35.46,19.9,35.46,55.16,0,0,.39,12.41.39,25.22,0,13.59-.39,27.58-1.97,27.58l-18.32.79c-.39,0-1.18-.2-1.18-1.18v-11.23c-2.76,3.94-3.35,12.41-15.56,12.41h-1.77c-18.72,0-30.54-.79-30.54-38.22ZM424.27,425.36s2.76-57.13,2.76-97.91c0-4.73-.2-7.49-.2-11.62-5.52,0-77.82-.59-77.82-1.58v-1.97l.39-18.72v-1.18c0-1.97.2-2.36,1.97-2.36l99.49-.79h1.77c.79,0,1.38.2,1.38.99,0,.39-.2.98-.39,1.77-.99,8.47-1.38,15.17-1.58,20.88,0,0,0,16.15.2,22.66,0,7.29.79,8.27,2.76,8.27,0,0,1.58-.2,4.53-.2,21.87,0,23.64-28.17,23.64-47.28,0-3.35.79-4.93,2.76-4.93,5.12-.2,16.94-.2,20.29-.2,10.64,0,11.62.79,11.62,1.77l.59,23.25c0,2.96-.2,3.15-2.56,3.15l-4.73.2-.39,8.47c-.79,15.56-15.17,32.11-36.84,32.31,41.17,0,35.26,53.98,37.63,60.09,0,.59,1.18,2.36,1.18,3.94,0,.99-.59,1.77-1.97,1.97,0,0-4.33.2-6.9.2-5.52,0-18.52-.2-21.28-.39-.99,0-1.18-2.17-1.18-5.32,0-8.47.99-16.55.99-23.05,0-10.84-2.56-17.73-16.35-17.73-7.68,0-14.97-1.38-14.97,5.32,0,30.14-.59,38.42-.59,40.39,0,.59-.2.79-.99.79l-23.44.2h-.79c-.99,0-.99-.2-.99-1.38ZM394.32,386.55c0-1.97-2.17-2.56-2.96-2.56h-3.15c-22.06,0-23.64,2.76-23.64,9.85v4.33c0,10.44,5.71,10.84,12.21,10.84,15.17,0,17.53-22.46,17.53-22.46Z"/>
  <path class="cls-1" d="M50.95,549.61c0-18.91,4.73-22.85,14.38-28.17-6.9-6.9-9.06-12.61-9.06-24.03,0-31.13,13.59-41.57,39.4-41.57,28.76,0,37.63,13,37.63,39.6,0,4.33-.39,4.33-2.96,4.14l-17.53-.99c-4.93-.2-5.32-.79-5.32-5.91,0-6.7-5.71-9.65-13.4-9.65-12.41,0-17.34,2.56-17.34,15.96s2.17,15.76,15.96,15.76c1.77,0,2.17,3.15,2.17,6.11,0,5.71-1.38,12.41-3.15,12.41-19.31,0-20.29,2.36-20.29,17.34,0,12.41,14.58,13.4,23.05,13.4,10.24,0,13.79-7.88,13.79-16.94,0-8.47-3.15-18.12-3.15-22.66,0-1.77.59-2.76,1.77-2.76,10.44,0,17.53-.2,22.26-.2,7.88,0,10.05.39,10.05,3.35l-.39,19.11c0,3.15,0,3.35-2.17,3.35l-7.09-.2v13.59c0,26.4-12.02,37.43-36.84,37.43-31.92,0-41.77-18.32-41.77-48.46Z"/>
  <path class="cls-1" d="M189.44,556.11v-6.11c0-2.36.39-2.76,2.56-2.76h13.79c4.53,0,5.91,0,5.91,5.12,0,13,6.5,16.55,19.5,16.75,14.78,0,21.08-9.06,21.08-17.53,0-7.29-4.73-13.99-11.62-13.99-9.06,0-18.12,1.97-25.81,1.97-13.99,0-25.02-3.94-25.41-23.44,0-42.95,8.27-59.5,47.48-59.5,27.38,0,37.43,15.76,37.43,42.95v10.05c0,2.56-.2,2.96-2.56,2.76l-13.79-.79c-5.91-.39-6.11-.79-6.11-7.29,0-11.03-3.94-11.43-19.7-11.43h-2.17c-12.41,0-18.91.59-19.11,20.09,0,8.47,5.52,10.44,13.2,10.44,6.9,0,15.76-1.77,23.64-1.77,13.79,0,26.6,5.32,26.6,21.47,0,41.77-7.88,55.75-47.08,55.75-27.98,0-37.83-15.17-37.83-42.75Z"/>
  <path class="cls-1" d="M282.42,518.88v-53.39c0-2.36,0-2.56,1.97-2.56l32.9-.59c1.18,0,1.18.39,1.18,4.14l-1.97,76.83c-.39,11.62,2.76,32.11,11.62,32.11,20.29,0,21.87-.79,21.87-34.67,0-2.96-2.17-74.47-2.17-78.61s.39-4.33,1.97-4.33h1.18c6.9,0,13.59.59,19.7.59,2.56,0,3.15.39,3.15,3.35l.59,28.57c0,4.53-.39,4.53-2.76,4.73l-2.96.2-.39,26.2c-.99,69.54-11.62,74.47-41.18,74.47-37.23,0-44.72-13.59-44.72-77.03Z"/>
  <path class="cls-1" d="M392.54,592.76c-1.77,0-1.97-.2-1.97-1.97l.2-97.72-4.92-.59c-3.74-.39-4.14,0-4.14-1.58l.39-31.52c0-3.15-.2-3.35,1.97-3.35h35.26c47.67,0,61.07,11.23,61.07,52.4,0,38.02-4.92,49.65-59.3,49.65-2.56,0-3.94-.2-4.92-.2-1.58,0-1.38.39-1.38,2.56v30.73c0,1.97-.2,2.36-1.97,2.36l-20.29-.79ZM459.92,505.88c0-12.41-14.58-15.96-22.85-15.96-2.96-.2-5.71-.2-8.08-.2-10.05,0-14.18,1.38-14.18,6.11l-.39,36.25c0,3.55.99,3.74,20.69,3.74,24.23,0,24.82-1.97,24.82-29.95Z"/>
  <g>
    <path class="cls-1" d="M633.59,208.86l129.04-.39c6.7,0,9.06.59,9.06,5.12l.59,33.1c.59,34.87-2.56,46.1-41.57,46.1-10.64,0-16.55-1.58-24.03-9.06-4.93,8.87-13.59,12.41-28.17,12.41-41.17,0-48.46-13.4-48.46-61.27v-22.26c0-3.15.2-3.74,3.55-3.74ZM713.38,249.64c.2,13.79,2.36,20.29,15.76,20.29s14.18-5.12,14.18-21.28v-18.72h-27.78c-1.38,0-2.17,0-2.36.59l.2,19.11ZM663.73,233.88s0,9.06.39,18.72c0,8.27.99,22.85,13.4,22.85,9.06,0,17.34-.39,17.34-24.82,0-14.97-.2-19.11-1.77-20.49h-24.63c-1.18.2-4.73.99-4.73,3.55v.2Z"/>
    <path class="cls-1" d="M699,303.22c46.3.39,72.3,9.26,72.3,50.43,0,38.02-14.58,49.45-54.37,49.45h-16.55c-2.96,0-2.76.2-2.76-1.97v-22.07c0-2.96-.2-2.96,2.36-2.96h11.43c19.9,0,25.02-6.3,25.02-20.29,0-22.85-11.03-28.96-33.49-28.96-27.38,0-41.17,5.52-41.17,28.37.2,14.18,3.15,16.75,13.2,16.75,5.71,0,5.71.2,5.71,4.14v25.61c0,3.94,0,4.33-2.76,4.33-28.76,0-46.3-26.4-46.3-51.81,0-31.92,25.02-51.02,67.38-51.02Z"/>
    <path class="cls-1" d="M634.58,413.94l126.67.59c4.14,0,3.55-.2,2.96,3.15l-2.96,19.7c-.98,6.9-1.58,14.78-1.58,17.93,0,10.24-72.89,28.76-72.89,33.88,0,.79,19.11,1.38,42.75,1.38h40.58c2.17,0,2.17-.2,2.17,1.18v17.53c0,1.18,0,1.38-1.18,1.38l-129.43-2.56c-1.77,0-5.32-9.85-5.32-18.91,0-4.14,1.18-8.08,4.73-10.64,14.38-6.9,25.02-11.82,35.46-16.55,7.88-3.55,39.6-15.96,49.65-23.25-1.38-.99-66.59-.99-93.97-.99-2.17,0-2.36.2-2.36-1.77v-3.74c0-13.59,1.18-18.32,4.73-18.32Z"/>
  </g>
  <path class="cls-6" d="M257.47,163.53s-6.2-44.13,17.14-44.86c23.34-.73,17.51,45.59,17.51,45.59,0,0,55.44-16.41,55.8,5.84.36,22.25-46.68,18.24-46.68,18.24,0,0,48.51,27.35,23.71,41.21s-42.67-25.53-42.67-25.53c0,0-20.79,46.32-38.66,31.73-17.87-14.59,14.95-42.31,14.95-42.31,0,0-43.77,15.68-43.77-10.21s42.67-19.69,42.67-19.69Z"/>
</svg>